# xmcd
#
# Track frame offsets: 
#        150
#        17065
#        31444
#        43380
#        60427
#        79265
#        97373
#        110895
#        128138
#        142887
#        155211
#        169778
#        183088
#        204192
#        218114
#        234374
#        248999
#        269616
#        288504
#        302868
#        322876
#
# Disc length: 4378 seconds
#
# Revision: 0
# Processed by: cddbd v1.5.2PL0 Copyright (c) Steve Scherf et al.
# Submitted via: ExactAudioCopy v1.0b1
#
DISCID=38111815
DTITLE=Vassendgutane - Festi ekje slutt...
DYEAR=2012
DGENRE=Country
TTITLE0=Festi ekje slutt
TTITLE1=Stein, torv og grus
TTITLE2=Hytta mi
TTITLE3=Silikon i tatti
TTITLE4=Det e helg
TTITLE5=Hjortejakt
TTITLE6=Oksefestival
TTITLE7=Ta dej ei løfse
TTITLE8=80 år
TTITLE9=Ungkar med dobbelseng
TTITLE10=Hei Reidar
TTITLE11=Konnjølfest
TTITLE12=Båtfolk
TTITLE13=Høgebrua
TTITLE14=Gjødselpumpå
TTITLE15=Greitt å vere neger
TTITLE16=Godt å vere rånar
TTITLE17=Skål for dette landet
TTITLE18=Granada
TTITLE19=Siste dans
TTITLE20=Fingreklåde
EXTD=
EXTT0=
EXTT1=
EXTT2=
EXTT3=
EXTT4=
EXTT5=
EXTT6=
EXTT7=
EXTT8=
EXTT9=
EXTT10=
EXTT11=
EXTT12=
EXTT13=
EXTT14=
EXTT15=
EXTT16=
EXTT17=
EXTT18=
EXTT19=
EXTT20=
PLAYORDER=
